<svg xmlns="http://www.w3.org/2000/svg" xmlns:xlink="http://www.w3.org/1999/xlink" width="500" zoomAndPan="magnify" viewBox="0 0 375 374.999991" height="500" preserveAspectRatio="xMidYMid meet" version="1.0"><defs><g/></defs><path stroke-linecap="butt" transform="matrix(1.791994, 0, 0, 1.791994, 26.490466, 124.572839)" fill="none" stroke-linejoin="miter" d="M 22.394403 22.734267 L 10.937192 22.734267 L 10.937192 28.384399 L 19.946449 28.384399 L 19.946449 37.406735 L 10.937192 37.406735 L 10.937192 41.938611 L 27.889767 41.938611 L 27.889767 51.000185 L 1.86254 51.000185 L 1.86254 13.672694 L 27.889767 13.672694 L 27.889767 17.238903 C 27.889767 18.73209 27.355707 20.020373 26.287588 21.10593 C 25.219469 22.191488 23.922468 22.734267 22.394403 22.734267 Z M 52.903371 13.672694 L 61.912628 13.672694 L 49.49193 51.000185 L 40.430357 51.000185 L 27.994399 13.672694 L 33.542079 13.672694 C 34.610198 13.672694 35.560606 13.975691 36.393303 14.583865 C 37.234719 15.181139 37.812375 15.981139 38.124091 16.979503 L 44.960053 37.406735 Z M 83.881003 22.734267 L 72.423792 22.734267 L 72.423792 28.384399 L 81.433049 28.384399 L 81.433049 37.406735 L 72.423792 37.406735 L 72.423792 41.938611 L 89.376367 41.938611 L 89.376367 51.000185 L 63.34914 51.000185 L 63.34914 13.672694 L 89.376367 13.672694 L 89.376367 17.238903 C 89.376367 18.73209 88.842307 20.020373 87.774188 21.10593 C 86.706069 22.191488 85.409068 22.734267 83.881003 22.734267 Z M 108.792155 13.672694 L 117.853729 13.672694 L 117.853729 51.000185 L 108.792155 51.000185 L 100.901154 33.565866 L 100.901154 51.000185 L 91.826501 51.000185 L 91.826501 13.672694 C 94.603611 13.672694 97.147478 14.418197 99.455923 15.911384 C 101.764368 17.404571 103.488617 19.39694 104.624311 21.886311 L 108.792155 31.104833 Z M 120.580702 41.886295 L 149.212832 41.938611 L 149.212832 45.77948 C 149.212832 47.194193 148.696211 48.41708 147.662969 49.450322 C 146.638447 50.483564 145.41338 51.000185 143.989948 51.000185 L 120.580702 50.947869 Z M 146.59485 25.129905 L 131.778513 41.886295 L 120.580702 41.886295 L 137.585593 22.681951 L 120.580702 22.681951 L 120.580702 13.620378 L 146.59485 13.620378 Z M 178.437877 13.672694 L 168.138158 32.3299 L 168.138158 51.104817 L 159.076584 51.104817 L 159.076584 32.3299 L 148.789944 13.672694 L 157.853697 13.672694 L 163.608461 24.179497 L 169.376304 13.672694 Z M 178.437877 13.672694 " stroke="#000000" stroke-width="3.999998" stroke-opacity="1" stroke-miterlimit="4"/><g fill="#000000" fill-opacity="1"><g transform="translate(26.490466, 215.964513)"><g><path d="M 40.140625 -50.640625 L 19.59375 -50.640625 L 19.59375 -40.515625 L 35.734375 -40.515625 L 35.734375 -24.375 L 19.59375 -24.375 L 19.59375 -16.25 L 49.984375 -16.25 L 49.984375 0 L 3.34375 0 L 3.34375 -66.890625 L 49.984375 -66.890625 L 49.984375 -60.484375 C 49.984375 -57.816406 49.023438 -55.507812 47.109375 -53.5625 C 45.203125 -51.613281 42.878906 -50.640625 40.140625 -50.640625 Z M 40.140625 -50.640625 "/></g></g></g><g fill="#000000" fill-opacity="1"><g transform="translate(77.521378, 215.964513)"><g><path d="M 43.765625 -66.890625 L 59.921875 -66.890625 L 37.65625 0 L 21.40625 0 L -0.859375 -66.890625 L 9.078125 -66.890625 C 10.984375 -66.890625 12.6875 -66.347656 14.1875 -65.265625 C 15.6875 -64.179688 16.722656 -62.75 17.296875 -60.96875 L 29.53125 -24.375 Z M 43.765625 -66.890625 "/></g></g></g><g fill="#000000" fill-opacity="1"><g transform="translate(136.675187, 215.964513)"><g><path d="M 40.140625 -50.640625 L 19.59375 -50.640625 L 19.59375 -40.515625 L 35.734375 -40.515625 L 35.734375 -24.375 L 19.59375 -24.375 L 19.59375 -16.25 L 49.984375 -16.25 L 49.984375 0 L 3.34375 0 L 3.34375 -66.890625 L 49.984375 -66.890625 L 49.984375 -60.484375 C 49.984375 -57.816406 49.023438 -55.507812 47.109375 -53.5625 C 45.203125 -51.613281 42.878906 -50.640625 40.140625 -50.640625 Z M 40.140625 -50.640625 "/></g></g></g><g fill="#000000" fill-opacity="1"><g transform="translate(187.706099, 215.964513)"><g><path d="M 33.734375 -66.890625 L 49.984375 -66.890625 L 49.984375 0 L 33.734375 0 L 19.59375 -31.25 L 19.59375 0 L 3.34375 0 L 3.34375 -66.890625 C 8.3125 -66.890625 12.863281 -65.550781 17 -62.875 C 21.144531 -60.195312 24.238281 -56.628906 26.28125 -52.171875 L 33.734375 -35.640625 Z M 33.734375 -66.890625 "/></g></g></g><g fill="#000000" fill-opacity="1"><g transform="translate(241.030542, 215.964513)"><g><path d="M 1.53125 -16.34375 L 52.84375 -16.25 L 52.84375 -9.359375 C 52.84375 -6.816406 51.914062 -4.617188 50.0625 -2.765625 C 48.21875 -0.921875 46.023438 0 43.484375 0 L 1.53125 -0.09375 Z M 48.15625 -46.34375 L 21.59375 -16.34375 L 1.53125 -16.34375 L 32.015625 -50.75 L 1.53125 -50.75 L 1.53125 -66.984375 L 48.15625 -66.984375 Z M 48.15625 -46.34375 "/></g></g></g><g fill="#000000" fill-opacity="1"><g transform="translate(294.546116, 215.964513)"><g><path d="M 51.703125 -66.890625 L 33.25 -33.453125 L 33.25 0.1875 L 17.015625 0.1875 L 17.015625 -33.453125 L -1.4375 -66.890625 L 14.8125 -66.890625 L 25.140625 -48.0625 L 35.453125 -66.890625 Z M 51.703125 -66.890625 "/></g></g></g><path stroke-linecap="butt" transform="matrix(1.791994, 0, 0, 1.791994, 30.066675, 117.819616)" fill="none" stroke-linejoin="miter" d="M 22.395473 22.733886 L 10.936081 22.733886 L 10.936081 28.384017 L 19.947518 28.384017 L 19.947518 37.406354 L 10.936081 37.406354 L 10.936081 41.93823 L 27.888656 41.93823 L 27.888656 50.999803 L 1.861429 50.999803 L 1.861429 13.672312 L 27.888656 13.672312 L 27.888656 17.238522 C 27.888656 18.731709 27.354597 20.019991 26.286478 21.105549 C 25.220539 22.191107 23.921357 22.733886 22.395473 22.733886 Z M 52.902261 13.672312 L 61.911518 13.672312 L 49.490819 50.999803 L 40.429246 50.999803 L 27.995468 13.672312 L 33.540968 13.672312 C 34.609087 13.672312 35.559495 13.975309 36.394372 14.583483 C 37.235788 15.182938 37.813444 15.980757 38.125161 16.979122 L 44.961122 37.406354 Z M 83.882073 22.733886 L 72.424861 22.733886 L 72.424861 28.384017 L 81.434118 28.384017 L 81.434118 37.406354 L 72.424861 37.406354 L 72.424861 41.93823 L 89.375256 41.93823 L 89.375256 50.999803 L 63.348029 50.999803 L 63.348029 13.672312 L 89.375256 13.672312 L 89.375256 17.238522 C 89.375256 18.731709 88.843377 20.019991 87.775258 21.105549 C 86.707139 22.191107 85.410137 22.733886 83.882073 22.733886 Z M 108.791045 13.672312 L 117.852618 13.672312 L 117.852618 50.999803 L 108.791045 50.999803 L 100.902223 33.565485 L 100.902223 50.999803 L 91.825391 50.999803 L 91.825391 13.672312 C 94.60468 13.672312 97.146367 14.417816 99.456992 15.911003 C 101.765437 17.404189 103.487507 19.396558 104.62538 21.88811 L 108.791045 31.104451 Z M 120.581771 41.885914 L 149.211721 41.93823 L 149.211721 45.779099 C 149.211721 47.193812 148.6951 48.416699 147.661859 49.449941 C 146.637336 50.483182 145.414449 50.999803 143.991017 50.999803 L 120.581771 50.947487 Z M 146.59374 25.129524 L 131.777403 41.885914 L 120.581771 41.885914 L 137.584483 22.68157 L 120.581771 22.68157 L 120.581771 13.619996 L 146.59374 13.619996 Z M 178.436766 13.672312 L 168.139227 32.329518 L 168.139227 51.104435 L 159.077654 51.104435 L 159.077654 32.329518 L 148.791013 13.672312 L 157.852586 13.672312 L 163.60735 24.179116 L 169.375193 13.672312 Z M 178.436766 13.672312 " stroke="#000000" stroke-width="3.999998" stroke-opacity="1" stroke-miterlimit="4"/><g fill="#f5f5f5" fill-opacity="1"><g transform="translate(30.066675, 209.21129)"><g><path d="M 40.140625 -50.640625 L 19.59375 -50.640625 L 19.59375 -40.515625 L 35.734375 -40.515625 L 35.734375 -24.375 L 19.59375 -24.375 L 19.59375 -16.25 L 49.984375 -16.25 L 49.984375 0 L 3.34375 0 L 3.34375 -66.890625 L 49.984375 -66.890625 L 49.984375 -60.484375 C 49.984375 -57.816406 49.023438 -55.507812 47.109375 -53.5625 C 45.203125 -51.613281 42.878906 -50.640625 40.140625 -50.640625 Z M 40.140625 -50.640625 "/></g></g></g><g fill="#f5f5f5" fill-opacity="1"><g transform="translate(81.097587, 209.21129)"><g><path d="M 43.765625 -66.890625 L 59.921875 -66.890625 L 37.65625 0 L 21.40625 0 L -0.859375 -66.890625 L 9.078125 -66.890625 C 10.984375 -66.890625 12.6875 -66.347656 14.1875 -65.265625 C 15.6875 -64.179688 16.722656 -62.75 17.296875 -60.96875 L 29.53125 -24.375 Z M 43.765625 -66.890625 "/></g></g></g><g fill="#f5f5f5" fill-opacity="1"><g transform="translate(140.251396, 209.21129)"><g><path d="M 40.140625 -50.640625 L 19.59375 -50.640625 L 19.59375 -40.515625 L 35.734375 -40.515625 L 35.734375 -24.375 L 19.59375 -24.375 L 19.59375 -16.25 L 49.984375 -16.25 L 49.984375 0 L 3.34375 0 L 3.34375 -66.890625 L 49.984375 -66.890625 L 49.984375 -60.484375 C 49.984375 -57.816406 49.023438 -55.507812 47.109375 -53.5625 C 45.203125 -51.613281 42.878906 -50.640625 40.140625 -50.640625 Z M 40.140625 -50.640625 "/></g></g></g><g fill="#f5f5f5" fill-opacity="1"><g transform="translate(191.282308, 209.21129)"><g><path d="M 33.734375 -66.890625 L 49.984375 -66.890625 L 49.984375 0 L 33.734375 0 L 19.59375 -31.25 L 19.59375 0 L 3.34375 0 L 3.34375 -66.890625 C 8.3125 -66.890625 12.863281 -65.550781 17 -62.875 C 21.144531 -60.195312 24.238281 -56.628906 26.28125 -52.171875 L 33.734375 -35.640625 Z M 33.734375 -66.890625 "/></g></g></g><g fill="#f5f5f5" fill-opacity="1"><g transform="translate(244.606751, 209.21129)"><g><path d="M 1.53125 -16.34375 L 52.84375 -16.25 L 52.84375 -9.359375 C 52.84375 -6.816406 51.914062 -4.617188 50.0625 -2.765625 C 48.21875 -0.921875 46.023438 0 43.484375 0 L 1.53125 -0.09375 Z M 48.15625 -46.34375 L 21.59375 -16.34375 L 1.53125 -16.34375 L 32.015625 -50.75 L 1.53125 -50.75 L 1.53125 -66.984375 L 48.15625 -66.984375 Z M 48.15625 -46.34375 "/></g></g></g><g fill="#f5f5f5" fill-opacity="1"><g transform="translate(298.122325, 209.21129)"><g><path d="M 51.703125 -66.890625 L 33.25 -33.453125 L 33.25 0.1875 L 17.015625 0.1875 L 17.015625 -33.453125 L -1.4375 -66.890625 L 14.8125 -66.890625 L 25.140625 -48.0625 L 35.453125 -66.890625 Z M 51.703125 -66.890625 "/></g></g></g></svg>